<?xml version="1.0" encoding="iso-8859-1"?>
<!-- Generator: Adobe Illustrator 16.0.0, SVG Export Plug-In . SVG Version: 6.00 Build 0)  -->
<!DOCTYPE svg PUBLIC "-//W3C//DTD SVG 1.1//EN" "http://www.w3.org/Graphics/SVG/1.1/DTD/svg11.dtd">
<svg version="1.1" id="Capa_1" xmlns="http://www.w3.org/2000/svg" xmlns:xlink="http://www.w3.org/1999/xlink" x="0px" y="0px"
	 width="127.367px" height="127.367px" viewBox="0 0 424.557 424.557" style="enable-background:new 0 0 424.557 424.557;"
	 xml:space="preserve">
<g>
	<path d="M333.58,201.38v-80.078C333.58,54.313,279.27,0,212.278,0C145.289,0,90.976,54.313,90.976,121.302v80.078
		c-10.188,3.32-20.374,6.753-30.327,10.899v181.953c97.05,40.432,206.21,40.432,303.258,0V212.279
		C353.952,208.133,343.769,204.7,333.58,201.38z M242.604,363.91h-60.65l11.311-67.882c-6.751-5.568-11.311-13.685-11.311-23.098
		c0-16.76,13.562-30.327,30.324-30.327c16.764,0,30.326,13.567,30.326,30.327c0,9.413-4.56,17.529-11.312,23.098L242.604,363.91z
		 M303.258,193.061c-59.854-14.216-122.076-14.216-181.958,0v-71.759c0-50.166,40.812-90.978,90.978-90.978
		c50.166,0,90.979,40.812,90.979,90.978V193.061z"/>
</g>
<g>
</g>
<g>
</g>
<g>
</g>
<g>
</g>
<g>
</g>
<g>
</g>
<g>
</g>
<g>
</g>
<g>
</g>
<g>
</g>
<g>
</g>
<g>
</g>
<g>
</g>
<g>
</g>
<g>
</g>
</svg>
